ffmpeg version 3.4.8-0ubuntu0.2 Copyright (c) 2000-2020 the FFmpeg developers
  built with gcc 7 (Ubuntu 7.5.0-3ubuntu1~18.04)
  configuration: --prefix=/usr --extra-version=0ubuntu0.2 --toolchain=hardened --libdir=/usr/lib/x86_64-linux-gnu --incdir=/usr/include/x86_64-linux-gnu --enable-gpl --disable-stripping --enable-avresample --enable-avisynth --enable-gnutls --enable-ladspa --enable-libass --enable-libbluray --enable-libbs2b --enable-libcaca --enable-libcdio --enable-libflite --enable-libfontconfig --enable-libfreetype --enable-libfribidi --enable-libgme --enable-libgsm --enable-libmp3lame --enable-libmysofa --enable-libopenjpeg --enable-libopenmpt --enable-libopus --enable-libpulse --enable-librubberband --enable-librsvg --enable-libshine --enable-libsnappy --enable-libsoxr --enable-libspeex --enable-libssh --enable-libtheora --enable-libtwolame --enable-libvorbis --enable-libvpx --enable-libwavpack --enable-libwebp --enable-libx265 --enable-libxml2 --enable-libxvid --enable-libzmq --enable-libzvbi --enable-omx --enable-openal --enable-opengl --enable-sdl2 --enable-libdc1394 --enable-libdrm --enable-libiec61883 --enable-chromaprint --enable-frei0r --enable-libopencv --enable-libx264 --enable-shared
  libavutil      55. 78.100 / 55. 78.100
  libavcodec     57.107.100 / 57.107.100
  libavformat    57. 83.100 / 57. 83.100
  libavdevice    57. 10.100 / 57. 10.100
  libavfilter     6.107.100 /  6.107.100
  libavresample   3.  7.  0 /  3.  7.  0
  libswscale      4.  8.100 /  4.  8.100
  libswresample   2.  9.100 /  2.  9.100
  libpostproc    54.  7.100 / 54.  7.100
[rawvideo @ 0x56542fa3aa20] Estimating duration from bitrate, this may be inaccurate
Input #0, rawvideo, from '../../SVC-Encoder-20220109T061506Z-001/SVC-Encoder/Dataset/RollerCoaster/ERP_8x8/tile_yuv/Tile_50_480x240.yuv':
  Duration: 00:00:10.00, start: 0.000000, bitrate: 41472 kb/s
    Stream #0:0: Video: rawvideo (I420 / 0x30323449), yuv420p, 480x240, 41472 kb/s, 30 tbr, 30 tbn, 30 tbc
Stream mapping:
  Stream #0:0 -> #0:0 (rawvideo (native) -> h264 (libx264))
Press [q] to stop, [?] for help
[libx264 @ 0x56542fa47c60] using cpu capabilities: MMX2 SSE2Fast LZCNT SSSE3 SSE4.2 AVX
[libx264 @ 0x56542fa47c60] profile High, level 2.1
Output #0, rawvideo, to 'RollerCoaster_Tile_50_480x240_x264_QP_40.h264':
  Metadata:
    encoder         : Lavf57.83.100
    Stream #0:0: Video: h264 (libx264), yuv420p, 480x240, q=-1--1, 30 fps, 30 tbn, 30 tbc
    Metadata:
      encoder         : Lavc57.107.100 libx264
    Side data:
      cpb: bitrate max/min/avg: 0/0/0 buffer size: 0 vbv_delay: -1
frame=  293 fps=0.0 q=46.0 PSNR=Y:nan U:nan V:nan *:nan size=      24kB time=00:00:08.33 bitrate=  23.2kbits/s speed=16.5x    frame=  300 fps=0.0 q=46.0 LPSNR=Y:inf U:inf V:inf *:inf size=      27kB time=00:00:09.93 bitrate=  22.5kbits/s speed=  18x    
video:27kB audio:0kB subtitle:0kB other streams:0kB global headers:0kB muxing overhead: 0.000000%
[libx264 @ 0x56542fa47c60] frame I:2     Avg QP:38.25  size:  2338  PSNR Mean Y:37.53 U:39.55 V:39.44 Avg:38.09 Global:38.04
[libx264 @ 0x56542fa47c60] frame P:76    Avg QP:38.20  size:   175  PSNR Mean Y:37.24 U:40.21 V:39.93 Avg:37.99 Global:37.96
[libx264 @ 0x56542fa47c60] frame B:222   Avg QP:45.52  size:    45  PSNR Mean Y:36.64 U:40.18 V:39.88 Avg:37.49 Global:37.46
[libx264 @ 0x56542fa47c60] consecutive B-frames:  1.0%  0.7%  1.0% 97.3%
[libx264 @ 0x56542fa47c60] mb I  I16..4: 23.7% 59.6% 16.8%
[libx264 @ 0x56542fa47c60] mb P  I16..4:  0.3%  0.6%  0.0%  P16..4: 23.1%  0.7%  0.0%  0.0%  0.0%    skip:75.4%
[libx264 @ 0x56542fa47c60] mb B  I16..4:  0.0%  0.0%  0.0%  B16..8:  6.9%  0.0%  0.0%  direct: 0.0%  skip:93.0%  L0:47.9% L1:52.1% BI: 0.0%
[libx264 @ 0x56542fa47c60] 8x8 transform intra:62.2% inter:97.1%
[libx264 @ 0x56542fa47c60] coded y,uvDC,uvAC intra: 15.9% 32.6% 13.0% inter: 0.1% 0.5% 0.0%
[libx264 @ 0x56542fa47c60] i16 v,h,dc,p: 57% 27% 11%  4%
[libx264 @ 0x56542fa47c60] i8 v,h,dc,ddl,ddr,vr,hd,vl,hu:  3% 49% 41%  1%  0%  0%  1%  0%  5%
[libx264 @ 0x56542fa47c60] i4 v,h,dc,ddl,ddr,vr,hd,vl,hu:  5% 66% 13%  1%  0%  0%  4%  0% 10%
[libx264 @ 0x56542fa47c60] i8c dc,h,v,p: 65% 31%  1%  4%
[libx264 @ 0x56542fa47c60] Weighted P-Frames: Y:0.0% UV:0.0%
[libx264 @ 0x56542fa47c60] ref P L0: 52.9% 16.9% 21.7%  8.5%
[libx264 @ 0x56542fa47c60] ref B L0: 52.9% 39.1%  8.0%
[libx264 @ 0x56542fa47c60] ref B L1: 72.8% 27.2%
[libx264 @ 0x56542fa47c60] PSNR Mean Y:36.799 U:40.180 V:39.888 Avg:37.623 Global:37.586 kb/s:22.31
